#!OML:ASF F:\VICON\USERDATA\INSTALL\rory3\rory3.ASF
:FULLY-SPECIFIED
:DEGREES
1
root 4.41332 16.3524 27.6297 28.6608 -48.5048 -4.69211
lowerback -16.0227 1.11681 -2.18776
upperback -6.95325 1.58982 0.430752
thorax 1.51794 0.761238 1.95314
lowerneck -8.504 -1.08115 -0.810516
upperneck 42.6532 -4.87278 4.74332
head 17.1908 -1.94574 1.38745
rclavicle 7.77745e-015 -7.55382e-015
rhumerus -131.859 -32.1723 69.6008
rradius -0.843753
rwrist 130.436
rhand 10.6243 9.69905
rfingers 7.12502
rthumb 35.7183 -16.6862
lclavicle 7.77745e-015 -7.55382e-015
lhumerus -41.382 18.1018 63.1747
lradius 24.3255
lwrist -7.28412
lhand 16.2901 21.7883
lfingers 7.12502
lthumb 41.0646 46.6841
rfemur -32.5399 -21.28 34.8422
rtibia 57.2913
rfoot 43.4503 -26.9007
rtoes 37.8683
lfemur -51.142 1.42876 -28.821
ltibia 48.5323
lfoot -39.1279 23.4458
ltoes 12.4938
2
root 4.42023 16.3571 27.6309 28.6622 -48.2363 -4.7927
lowerback -16.077 0.946277 -2.07529
upperback -7.01337 1.34045 0.612591
thorax 1.4933 0.636626 2.03919
lowerneck -8.42814 -0.950031 -0.474281
upperneck 42.5164 -4.48783 4.15541
head 17.0364 -1.8096 1.11882
rclavicle 1.56543e-014 1.88845e-014
rhumerus -131.715 -32.6763 69.5487
rradius -0.607068
rwrist 130.343
rhand 11.1463 9.79891
rfingers 7.12502
rthumb 36.2128 -16.465
lclavicle 1.56543e-014 1.88845e-014
lhumerus -41.424 17.8493 63.443
lradius 24.1163
lwrist -7.66949
lhand 16.8506 21.5546
lfingers 7.12502
lthumb 41.5907 46.2804
rfemur -32.301 -21.2314 34.7927
rtibia 57.1885
rfoot 41.4777 -30.0488
rtoes 41.8358
lfemur -51.0496 1.23997 -28.6499
ltibia 48.5245
lfoot -39.1631 23.2804
ltoes 12.8528
